<?xml version="1.0" standalone="yes"?>
<svg width="900" height="900">
<path style="fill:#ffffff; stroke:none;" d="M0 0L0 900L900 900L900 0L0 0z"/>
<path style="fill:#ffc6c2; stroke:none;" d="M140 139L140 140L762 140L744 139L708 139L581 139L140 139z"/>
<path style="fill:#ffc4c2; stroke:none;" d="M139 140L139 762L140 762L140 321L140 194L140 158L139 140z"/>
<path style="fill:#d44e42; stroke:none;" d="M140 140L140 760L141 760L141 141L760 141L742 140L706 140L580 140L140 140z"/>
<path style="fill:#d13f32; stroke:none;" d="M760 140L760 760L140 760L140 761L761 761L761 321L761 194L761 158L760 140z"/>
<path style="fill:#f68b83; stroke:none;" d="M761 140L761 761L140 761L140 762L762 762L762 321L762 194L762 158L761 140z"/>
<path style="fill:#ef493b; stroke:none;" d="M141 141L141 760L760 760L760 141L141 141z"/>
<path style="fill:#de5e51; stroke:none;" d="M173 726L174 726L174 314L174 211L174 186L175.603 175.603L186 174L211 174L314 174L727 174C716.973 169.792 699.896 173 689 173L603 173L302 173L206 173L183 173C180.383 173.001 175.891 172.25 174.028 174.603C172.088 177.052 173 182.09 173 185L173 212L173 318L173 726z"/>
<path style="fill:#f0ada7; stroke:none;" d="M174 727L175 727L175 175L727 175C716.973 170.792 699.896 174 689 174L603 174L303 174L207 174L184 174C181.383 174.001 176.891 173.25 175.028 175.603C173.088 178.052 174 183.09 174 186L174 213L174 319L174 727z"/>
<path style="fill:#ffffff; stroke:none;" d="M175 175L175 726L726 726L726 175L175 175z"/>
<path style="fill:#ffe2dc; stroke:none;" d="M726 175L726 726L175 726L175 727L727 727L727 336L727 223C727 209.485 731.206 187.407 726 175z"/>
<path style="fill:#f1a196; stroke:none;" d="M727 175L727 727L728 727L728 336L728 223C728 209.485 732.206 187.407 727 175z"/>
<path style="fill:#e3594c; stroke:none;" d="M728 175L728 588L728 691L728 716L726.397 726.397L716 728L691 728L587 728L174 728L174 729L584 729L690 729L717 729C719.91 729 724.948 729.912 727.397 727.972C729.75 726.109 728.999 721.617 729 719L729 696L729 600L729 299L729 213C729 202.104 732.208 185.027 728 175z"/>
<path style="fill:#fbaba0; stroke:none;" d="M574 276L623 275C613.211 270.892 596.634 274 586 274C582.11 274 576.719 272.888 574 276z"/>
<path style="fill:#ffcbc6; stroke:none;" d="M289 275L289 276L338 276C325.348 270.691 302.788 275 289 275z"/>
<path style="fill:#e26859; stroke:none;" d="M575 275L575 276L623 276C610.586 270.791 588.526 275 575 275z"/>
<path style="fill:#ee7e72; stroke:none;" d="M623 275L623 326L624 326C624 311.689 628.508 288.127 623 275z"/>
<path style="fill:#ffd1ca; stroke:none;" d="M288 276L288 294L289 294L288 276z"/>
<path style="fill:#ef7d72; stroke:none;" d="M289 276L289 294L290 294L290 277L347 277L328 276L289 276z"/>
<path style="fill:#ffcec3; stroke:none;" d="M347 276L347 277L357 277L347 276z"/>
<path style="fill:#ef493b; stroke:none;" d="M574 276L555.594 329L521.159 426L509.205 461L500 484C514.636 406.319 491.421 320.598 411.576 289.688C372.343 274.501 331.298 277 290 277L290 334C325.891 334 365.604 329.506 396 352.598C415.154 367.149 423.894 389.223 428.449 412C437.457 457.045 427.569 511.656 387.576 538.906C360.167 557.581 321.349 554 290 554L290 612C342.352 612 399.776 611.184 444 579.079C454.207 571.67 463.265 562.952 470.985 553C475.455 547.238 478.655 539.938 484 535L457 612L534 612C535.613 592.259 545.343 570.476 551.63 551.714C553.47 546.224 554 535.368 559.343 532.028C563.78 529.254 572.928 531 578 531L623 531L623 473L576 473C577.759 459.94 583.568 447.528 587.434 435C598.246 399.969 613.607 365.616 622.296 330C626.29 313.624 623 292.847 623 276L574 276z"/>
<path style="fill:#ffcdc9; stroke:none;" d="M624 276L624 325L625 325C625 311.212 629.309 288.652 624 276z"/>
<path style="fill:#f39c92; stroke:none;" d="M357 277L357 278L361 278L357 277z"/>
<path style="fill:#ea9f9a; stroke:none;" d="M573 277L573 280L574 280L573 277z"/>
<path style="fill:#f19e98; stroke:none;" d="M372 279L372 280L376 280L372 279z"/>
<path style="fill:#ffc5c1; stroke:none;" d="M378 280L378 281L383 281L378 280z"/>
<path style="fill:#ed8a84; stroke:none;" d="M389 282L392 284L389 282z"/>
<path style="fill:#f4b8b0; stroke:none;" d="M571 282L571 285L572 285L571 282z"/>
<path style="fill:#fed7d0; stroke:none;" d="M392 283L392 284L399 285L392 283z"/>
<path style="fill:#ee948b; stroke:none;" d="M402 286L402 287L406 288L406 287L402 286z"/>
<path style="fill:#ef958c; stroke:none;" d="M407.667 288.333L408.333 288.667L407.667 288.333z"/>
<path style="fill:#f0938b; stroke:none;" d="M417.667 292.333L418.333 292.667L417.667 292.333z"/>
<path style="fill:#f58d82; stroke:none;" d="M568.333 292.667L568.667 293.333L568.333 292.667z"/>
<path style="fill:#ef9796; stroke:none;" d="M419.667 293.333L420.333 293.667L419.667 293.333z"/>
<path style="fill:#ef978d; stroke:none;" d="M289 294L289 335L341 335L341 334L290 334C290 322.566 293.411 304.512 289 294z"/>
<path style="fill:#eaa19a; stroke:none;" d="M567 294L567 297L568 297L567 294z"/>
<path style="fill:#f0938b; stroke:none;" d="M425.667 296.333L426.333 296.667L425.667 296.333z"/>
<path style="fill:#fd9a95; stroke:none;" d="M566.333 297.667L566.667 298.333L566.333 297.667z"/>
<path style="fill:#f88c8a; stroke:none;" d="M432 300L432 301L435 301L432 300z"/>
<path style="fill:#ebaba2; stroke:none;" d="M565 300L562 311L563 311L565 300z"/>
<path style="fill:#ffcac3; stroke:none;" d="M448 310L451 312L448 310z"/>
<path style="fill:#f89e96; stroke:none;" d="M560 314L560 317L561 317L560 314z"/>
<path style="fill:#dd9c96; stroke:none;" d="M559.333 317.667L559.667 318.333L559.333 317.667z"/>
<path style="fill:#fa938a; stroke:none;" d="M558.333 320.667L558.667 321.333L558.333 320.667z"/>
<path style="fill:#fcaa9f; stroke:none;" d="M557 324L556 327L557 324z"/>
<path style="fill:#ee8b86; stroke:none;" d="M553 333L553 337L554 337L553 333z"/>
<path style="fill:#f6b5b3; stroke:none;" d="M620 334L620 339L621 339L620 334z"/>
<path style="fill:#ffd9d5; stroke:none;" d="M290 335L290 336L341 336C327.873 330.492 304.311 335 290 335z"/>
<path style="fill:#ffa9a6; stroke:none;" d="M341 335L341 336L351 336L341 335z"/>
<path style="fill:#f17c6b; stroke:none;" d="M351 335L351 336L356 336L351 335z"/>
<path style="fill:#f8c1ba; stroke:none;" d="M353 336L353 337L357 337L353 336z"/>
<path style="fill:#df6f63; stroke:none;" d="M357 336L357 337L365 338L357 336z"/>
<path style="fill:#ffb1aa; stroke:none;" d="M366 338L366 339L372 340L372 339L366 338z"/>
<path style="fill:#ec9f99; stroke:none;" d="M551 340L549 347L550 347L551 340z"/>
<path style="fill:#fab1a8; stroke:none;" d="M377 342L377 343L380 343L377 342z"/>
<path style="fill:#ffa599; stroke:none;" d="M384.667 345.333L385.333 345.667L384.667 345.333z"/>
<path style="fill:#ffbfb5; stroke:none;" d="M617 346L615 353L616 353L617 346z"/>
<path style="fill:#f88a8b; stroke:none;" d="M483.333 350.667L483.667 351.333L483.333 350.667z"/>
<path style="fill:#fcb6ac; stroke:none;" d="M547 352L546 356L547 356L547 352z"/>
<path style="fill:#fab5b0; stroke:none;" d="M486 355L486 358L487 358L486 355z"/>
<path style="fill:#fb9e97; stroke:none;" d="M613 356L613 359L614 359L613 356z"/>
<path style="fill:#fccac1; stroke:none;" d="M544 360L543 364L544 364L544 360z"/>
<path style="fill:#ffb5ad; stroke:none;" d="M489 361L489 364L490 364L489 361z"/>
<path style="fill:#f29897; stroke:none;" d="M543 364L542 368L543 368L543 364z"/>
<path style="fill:#e9877c; stroke:none;" d="M539 373L538 379L539 379L539 373z"/>
<path style="fill:#fac5bf; stroke:none;" d="M606 376L606 380L607 380L606 376z"/>
<path style="fill:#ffc8be; stroke:none;" d="M537 380L536 384L537 384L537 380z"/>
<path style="fill:#ef9d92; stroke:none;" d="M421.333 386.667L421.667 387.333L421.333 386.667z"/>
<path style="fill:#f9a195; stroke:none;" d="M422.333 389.667L422.667 390.333L422.333 389.667z"/>
<path style="fill:#e68e80; stroke:none;" d="M423 391L423 394L424 394L423 391z"/>
<path style="fill:#fb847e; stroke:none;" d="M532 393L532 397L533 397L532 393z"/>
<path style="fill:#ffbbb8; stroke:none;" d="M424 394L424 399L425 399L424 394z"/>
<path style="fill:#ffcbc8; stroke:none;" d="M500 394L500 398L501 398L500 394z"/>
<path style="fill:#f07d78; stroke:none;" d="M600 395L599 400L600 400L600 395z"/>
<path style="fill:#ffc6c6; stroke:none;" d="M530 399L529 404L530 404L530 399z"/>
<path style="fill:#eb847d; stroke:none;" d="M501 400L502 411L503 411L501 400z"/>
<path style="fill:#fda99f; stroke:none;" d="M426 402L426 406L427 406L426 402z"/>
<path style="fill:#ffb7b7; stroke:none;" d="M528.333 404.667L528.667 405.333L528.333 404.667z"/>
<path style="fill:#f3a9a0; stroke:none;" d="M596 406L594 414L595 414L596 406z"/>
<path style="fill:#ef958a; stroke:none;" d="M428 412L428 416L429 416L428 412z"/>
<path style="fill:#eeb2aa; stroke:none;" d="M525 413L525 416L526 416L525 413z"/>
<path style="fill:#f48277; stroke:none;" d="M429 416L430 459L431 459C431 446.152 434.032 427.987 429 416z"/>
<path style="fill:#f08c7d; stroke:none;" d="M503 417L503 425L504 425L503 417z"/>
<path style="fill:#ef8b89; stroke:none;" d="M592 417L592 420L593 420L592 417z"/>
<path style="fill:#fbc0b8; stroke:none;" d="M504 418L504 457L505 457C505 445.828 508.311 428.274 504 418z"/>
<path style="fill:#ff9a92; stroke:none;" d="M591 421L591 424L592 424L591 421z"/>
<path style="fill:#f39b91; stroke:none;" d="M589 428L588 432L589 432L589 428z"/>
<path style="fill:#ffddd8; stroke:none;" d="M429 432L429 453L430 453L429 432z"/>
<path style="fill:#f5b0a9; stroke:none;" d="M586 437L586 440L587 440L586 437z"/>
<path style="fill:#fca299; stroke:none;" d="M585 440L585 443L586 443L585 440z"/>
<path style="fill:#ffb8ac; stroke:none;" d="M514 444L514 447L515 447L514 444z"/>
<path style="fill:#e89082; stroke:none;" d="M514 447L513 450L514 447z"/>
<path style="fill:#fbb7ac; stroke:none;" d="M582.333 450.667L582.667 451.333L582.333 450.667z"/>
<path style="fill:#ffc7c5; stroke:none;" d="M581 452L578 464L579 464L581 452z"/>
<path style="fill:#fab5ae; stroke:none;" d="M429 453L429 462L430 462L429 453z"/>
<path style="fill:#fba09f; stroke:none;" d="M510.333 456.667L510.667 457.333L510.333 456.667z"/>
<path style="fill:#ffd2cb; stroke:none;" d="M503 461L503 471L504 471L503 461z"/>
<path style="fill:#fe9b96; stroke:none;" d="M428 465L428 471L429 471L428 465z"/>
<path style="fill:#e5897a; stroke:none;" d="M507 465L506 470L507 470L507 465z"/>
<path style="fill:#e2837f; stroke:none;" d="M502 469L502 473L503 473L502 469z"/>
<path style="fill:#fcc5be; stroke:none;" d="M427 471L426 479L427 479L427 471z"/>
<path style="fill:#f09990; stroke:none;" d="M505.333 471.667L505.667 472.333L505.333 471.667z"/>
<path style="fill:#f07b71; stroke:none;" d="M576 472L576 473L623 473C610.823 467.891 589.265 472 576 472z"/>
<path style="fill:#fe9c8f; stroke:none;" d="M623 473L623 532L624 532L624 492L623 473z"/>
<path style="fill:#ff8b7b; stroke:none;" d="M501 475L500 484C503.192 481.672 502.587 478.33 501 475z"/>
<path style="fill:#f0a592; stroke:none;" d="M423 490L423 493L424 493L423 490z"/>
<path style="fill:#eb7261; stroke:none;" d="M422 493L421 498L422 498L422 493z"/>
<path style="fill:#e68f85; stroke:none;" d="M420 500L419 504L420 504L420 500z"/>
<path style="fill:#f0988e; stroke:none;" d="M416.333 507.667L416.667 508.333L416.333 507.667z"/>
<path style="fill:#e36a5f; stroke:none;" d="M558 531L558 532L623 532L602 531L558 531z"/>
<path style="fill:#f7c0bb; stroke:none;" d="M558 532L558 533L623 533L602 532L558 532z"/>
<path style="fill:#fd7f71; stroke:none;" d="M482 535L482 539L484 535L482 535z"/>
<path style="fill:#ffc2b5; stroke:none;" d="M480 538L480 544L481 544L482 538L480 538z"/>
<path style="fill:#ffa7a0; stroke:none;" d="M555.333 538.667L555.667 539.333L555.333 538.667z"/>
<path style="fill:#f5a6a1; stroke:none;" d="M383 540L383 541L388 540L383 540z"/>
<path style="fill:#fab1a8; stroke:none;" d="M377 543L377 544L380 544L377 543z"/>
<path style="fill:#ffb2a6; stroke:none;" d="M553 543L553 548L554 548L553 543z"/>
<path style="fill:#ffc6ba; stroke:none;" d="M476 544L475 548L476 548L478 544L476 544z"/>
<path style="fill:#fdaaa6; stroke:none;" d="M369 546L369 547L372 547L369 546z"/>
<path style="fill:#ffbcb6; stroke:none;" d="M366 547L366 548L369 548L366 547z"/>
<path style="fill:#ffbfb6; stroke:none;" d="M350 550L350 551L357 551L350 550z"/>
<path style="fill:#e58d83; stroke:none;" d="M347 551L347 552L353 552L347 551z"/>
<path style="fill:#ffdbd4; stroke:none;" d="M289 552L289 553L339 553C326.11 547.591 303.049 552 289 552z"/>
<path style="fill:#f08d87; stroke:none;" d="M339 552L339 553L343 553L339 552z"/>
<path style="fill:#f3ada5; stroke:none;" d="M288 553L288 563L289 563L290 553L288 553z"/>
<path style="fill:#e7857a; stroke:none;" d="M290 553L290 554L339 554C326.348 548.691 303.788 553 290 553z"/>
<path style="fill:#f7b4ac; stroke:none;" d="M550 553L550 557L551 557L550 553z"/>
<path style="fill:#df7869; stroke:none;" d="M289 554L289 612L290 612L290 573L289 554z"/>
<path style="fill:#ffd3c9; stroke:none;" d="M288 563L288 592L289 592L288 563z"/>
<path style="fill:#f2b2a9; stroke:none;" d="M546 566L546 571L547 571L546 566z"/>
<path style="fill:#f69c93; stroke:none;" d="M543 579L542 582L543 579z"/>
<path style="fill:#ffb5af; stroke:none;" d="M433 585L433 586L437 585L433 585z"/>
<path style="fill:#ffa8a2; stroke:none;" d="M541.333 584.667L541.667 585.333L541.333 584.667z"/>
<path style="fill:#f8a198; stroke:none;" d="M465 585L464 589L465 589L465 585z"/>
<path style="fill:#f17f75; stroke:none;" d="M540 587L539 592L540 592L540 587z"/>
<path style="fill:#f5b4b0; stroke:none;" d="M463.333 590.667L463.667 591.333L463.333 590.667z"/>
<path style="fill:#ffbab3; stroke:none;" d="M462 592L462 595L463 595L462 592z"/>
<path style="fill:#ed9b90; stroke:none;" d="M408 597L408 598L412 597L408 597z"/>
<path style="fill:#e47063; stroke:none;" d="M537 597L536 603L537 603L537 597z"/>
<path style="fill:#ffb9ae; stroke:none;" d="M460.333 598.667L460.667 599.333L460.333 598.667z"/>
<path style="fill:#ff9a8f; stroke:none;" d="M402 599L402 600L405 600L402 599z"/>
<path style="fill:#ffd2cc; stroke:none;" d="M390 603L390 604L397 603L390 603z"/>
<path style="fill:#ffccc4; stroke:none;" d="M535 603L534 611L535 611L535 603z"/>
<path style="fill:#f4a199; stroke:none;" d="M386 604L386 605L389 605L386 604z"/>
<path style="fill:#e56c63; stroke:none;" d="M368 607L368 608L379 607L368 607z"/>
<path style="fill:#d67971; stroke:none;" d="M458 606L457 610L458 610L458 606z"/>
<path style="fill:#f29991; stroke:none;" d="M364 608L364 609L369 609L364 608z"/>
<path style="fill:#ffcdc5; stroke:none;" d="M352 610L352 611L368 610L352 610z"/>
<path style="fill:#e78675; stroke:none;" d="M330 611L330 612L352 611L330 611z"/>
<path style="fill:#ffd2d0; stroke:none;" d="M456 610C457.15 615.366 470.329 613 475 613L534 613L534 612L480 612L456 610M289 612L289 613L344 613L326 612L289 612z"/>
<path style="fill:#ef9f96; stroke:none;" d="M174 727L174 728L727 728C714.593 722.794 692.515 727 679 727L566 727L174 727z"/>
</svg>
