<?xml version="1.0" encoding="utf-8"?>
<!-- Svg Vector Icons : http://www.onlinewebfonts.com/icon -->
<!DOCTYPE svg PUBLIC "-//W3C//DTD SVG 1.1//EN" "http://www.w3.org/Graphics/SVG/1.1/DTD/svg11.dtd">
<svg version="1.1" xmlns="http://www.w3.org/2000/svg" xmlns:xlink="http://www.w3.org/1999/xlink" x="0px" y="0px" viewBox="0 0 1000 1000" enable-background="new 0 0 1000 1000" xml:space="preserve">
<metadata> Svg Vector Icons : http://www.onlinewebfonts.com/icon </metadata>
<g><g><path fill="#32bde8" d="M658.1,782.8c0,19.3-6.8,35.7-20.4,49.3c-13.6,13.6-30.1,20.4-49.3,20.4s-35.8-6.8-49.5-20.4c-13.8-13.6-20.6-30.1-20.6-49.3s6.9-35.8,20.6-49.5c13.7-13.8,30.3-20.6,49.5-20.6s35.7,6.9,49.3,20.6C651.3,747,658.1,763.5,658.1,782.8z M339.6,782.8c0,19.3-6.9,35.7-20.6,49.3c-13.7,13.6-30.3,20.4-49.5,20.4c-19.3,0-35.7-6.8-49.3-20.4s-20.4-30.1-20.4-49.3s6.8-35.8,20.4-49.5c13.6-13.8,30.1-20.6,49.3-20.6c19.3,0,35.8,6.9,49.5,20.6C332.7,747,339.6,763.5,339.6,782.8z M10,147.5c16.2,17,31.8,31.8,47,44.4c15.2,12.6,32.3,24.2,51.5,34.9c19.1,10.6,38.4,19.6,57.8,26.8c19.4,7.2,42.9,13.7,70.6,19.3c27.6,5.7,56,10.1,85,13.4s64.5,5.9,106.3,7.9s84.9,3.3,129.3,4c44.4,0.7,97.2,1.1,158.4,1.1c39.4,0,74.1,0.7,104,2.1s55.6,3.8,77,7c21.4,3.3,39,7.2,52.7,11.7s23.8,10.1,30.2,16.8s9.8,14,10.2,21.9c0.4,7.9-2.3,17-8.3,27.2c-6,10.2-14,21-24,32.5s-22.8,24.4-38.1,38.7c-15.3,14.3-31.8,29.1-49.3,44.4c-17.6,15.3-37.3,32.2-59.1,50.6c-52.4,44.5-93,79.5-121.6,105c8.2-14.5,19.1-29.9,32.5-46.4c13.5-16.4,26.8-31.4,40-44.9c13.2-13.5,26.6-27.4,40.2-41.9c13.6-14.5,25.4-27.4,35.3-38.9c9.9-11.5,17.6-22.9,23-34.2c5.4-11.3,7.2-21.3,5.5-29.8c-1.7-8.5-8.2-16.4-19.3-23.6c-11.2-7.2-27.7-13-49.5-17.4c-21.8-4.4-50.7-7.7-86.7-10c-36-2.3-79.1-3-129.3-2.1c-47.6,0.6-92.1-0.3-133.5-2.6c-41.4-2.3-77.7-5.5-108.9-9.8c-31.2-4.3-60.2-10.1-87-17.4c-26.8-7.4-49.4-14.7-67.8-21.9c-18.4-7.2-35.8-16.1-52.1-26.6c-16.3-10.5-29.3-19.9-38.9-28.3c-9.6-8.4-19.3-18.5-28.9-30.4c-9.6-11.9-16.8-21.8-21.5-29.6s-10.3-17.4-17-28.9S13.7,152.9,10,147.5L10,147.5z"/></g></g>
</svg>